<mxfile host="app.diagrams.net" modified="2024-03-27T06:58:57.640Z" agent="Mozilla/5.0 (Macintosh; Intel Mac OS X 10_15_7) AppleWebKit/537.36 (KHTML, like Gecko) Chrome/122.0.0.0 Safari/537.36" version="24.2.0" etag="FB8V1N7mIhbnW_qsUuKM" type="github">
  <diagram name="Page-1" id="OdIIXYwmLwBvI2BoWne0">
    <mxGraphModel>
      <root>
        <mxCell id="0" />
        <mxCell id="1" parent="0" />
      </root>
    </mxGraphModel>
  </diagram>
</mxfile>
